<svg width="500" height="500" viewBox="0 0 500 500" fill="none" xmlns="http://www.w3.org/2000/svg">
<path d="M402.196 120.209V175.083L409.058 168.729V120.209C409.058 104.152 398.291 90.9819 385.158 90.9819H114.795C101.543 90.9819 90.8944 104.036 90.8944 120.209V228.339L97.7569 221.523V120.094C97.7569 108.542 105.448 99.1841 114.913 99.1841H385.276C394.505 99.4152 402.196 108.773 402.196 120.209Z" fill="white"/>
<path d="M402.196 286.332V379.791C402.196 391.343 394.505 400.7 385.158 400.7H114.795C105.33 400.7 97.6387 391.343 97.6387 379.791V328.036C95.3906 328.036 93.0243 328.036 90.7762 328.152V379.791C90.7762 395.848 101.543 409.018 114.677 409.018H385.039C398.291 409.018 408.94 395.964 408.94 379.791V276.975L402.196 286.332Z" fill="white"/>
<path d="M132.188 351.256C133.253 348.715 135.264 347.444 138.459 347.444C141.654 347.444 143.783 348.715 144.73 351.372L153.959 374.939H146.86L138.814 354.144C138.696 353.913 138.696 353.913 138.459 353.913C138.341 353.913 138.222 353.913 138.104 354.144L129.703 374.939H122.604L132.188 351.256Z" fill="white"/>
<path fill-rule="evenodd" clip-rule="evenodd" d="M184.367 361.307C186.142 360.036 186.97 358.188 186.97 355.762C186.97 352.874 185.669 347.906 177.386 347.906H166.028C164.016 347.906 162.951 348.946 162.951 350.91V371.935C162.951 373.783 164.135 374.939 166.028 374.939H177.505C183.539 374.939 187.089 372.05 187.089 367.083C187.089 364.541 186.142 362.578 184.367 361.307ZM177.623 368.7H169.341V364.079H177.623C180.226 364.079 180.581 365.35 180.581 366.39C180.581 367.429 180.344 368.7 177.623 368.7ZM169.341 358.534V354.144H177.505C180.108 354.144 180.463 355.415 180.463 356.455C180.463 357.494 180.226 358.534 177.505 358.534H169.341Z" fill="white"/>
<path d="M204.482 358.188H215.722V347.906H222.112V374.939H215.722V364.426H204.482V374.939H197.974V347.906H204.482V358.188Z" fill="white"/>
<path d="M240.452 347.906H234.063V374.939H240.452V347.906Z" fill="white"/>
<path d="M279.852 369.278C279.97 369.278 280.207 369.278 280.444 368.816L288.371 347.906H295.234L286.833 370.087C286.005 372.397 284.466 375.401 279.852 375.401C275.711 375.401 273.226 372.975 273.226 368.931V354.144C273.226 353.567 272.516 353.451 272.279 354.144L266.008 370.202C265.18 372.513 263.642 375.516 259.028 375.516C254.768 375.516 252.283 373.09 252.283 369.047V348.022H258.673V368.816C258.673 369.278 258.909 369.278 259.028 369.278C259.146 369.278 259.382 369.162 259.501 368.816L265.772 352.758C266.6 350.448 268.138 347.444 272.753 347.444C276.894 347.444 279.497 349.986 279.497 353.913V368.816C279.497 369.278 279.734 369.278 279.852 369.278Z" fill="white"/>
<path d="M314.401 347.444C311.206 347.444 309.195 348.715 308.13 351.256L298.546 374.939H305.645L314.046 354.144C314.164 353.913 314.282 353.913 314.401 353.913C314.514 353.913 314.573 353.913 314.616 353.939C314.664 353.966 314.694 354.024 314.756 354.144L322.801 374.939H329.901L320.672 351.372C319.607 348.715 317.595 347.444 314.401 347.444Z" fill="white"/>
<path d="M361.729 368.7V347.906H368.118V369.047C368.118 373.09 365.515 375.516 361.256 375.516C356.641 375.516 354.985 372.628 354.038 370.202L346.584 354.26C346.347 353.682 346.229 353.682 345.874 353.682C345.282 353.682 345.282 353.798 345.282 354.144V374.939H338.893V353.913C338.893 349.87 341.496 347.444 345.756 347.444C350.37 347.444 352.027 350.332 352.973 352.758L360.427 368.7C360.546 369.047 360.782 369.162 361.137 369.162C361.729 369.162 361.729 368.931 361.729 368.7Z" fill="white"/>
<path d="M233.117 325.152H263.525C264.59 325.152 265.537 324.806 266.365 323.997L298.075 294.077C298.785 293.383 299.85 292.921 300.915 292.921H301.624C304.701 292.921 306.712 296.271 305.174 298.813L293.105 319.03C291.567 321.687 293.46 324.921 296.655 324.921H365.399C366.582 324.921 367.766 324.344 368.594 323.419L499.101 162.033C501.231 159.491 499.338 155.679 495.907 155.679H433.67C432.605 155.679 431.659 156.026 430.83 156.719L355.46 226.957C354.75 227.651 353.685 227.997 352.739 227.997C349.426 227.997 347.533 224.416 349.426 221.759L393.086 161.686C394.979 159.029 393.086 155.448 389.773 155.448H339.96C338.895 155.448 337.831 155.91 337.121 156.603L266.838 226.842C266.128 227.651 265.063 227.997 263.998 227.997H263.17C260.094 227.997 258.082 224.762 259.621 222.105L295.117 161.224C296.655 158.567 294.762 155.333 291.567 155.333H233.353C231.105 155.333 229.331 157.065 229.331 159.26V320.647C229.094 323.42 230.869 325.152 233.117 325.152Z" fill="white"/>
<path d="M166.501 157.061L1.20688 318.448C-1.39617 320.874 0.496958 325.148 4.1649 325.148H91.6038C92.6687 325.148 93.7337 324.686 94.4436 323.993L164.844 255.256C165.554 254.563 166.619 254.101 167.684 254.101H168.157C171.352 254.101 173.245 257.451 171.589 260.108L133.963 319.141C132.306 321.798 134.199 325.148 137.394 325.148H209.451C211.699 325.148 213.474 323.415 213.474 321.22V159.834C213.474 157.639 211.699 155.906 209.451 155.906H169.34C168.276 155.906 167.211 156.368 166.501 157.061Z" fill="white"/>
</svg>
