<svg width="8" height="157" viewBox="0 0 8 157" fill="none" xmlns="http://www.w3.org/2000/svg">
<path d="M3.64872 156.356C3.84523 156.55 4.16181 156.548 4.35581 156.351L7.51733 153.149C7.71134 152.952 7.70931 152.636 7.5128 152.442C7.31629 152.248 6.99971 152.25 6.80571 152.446L3.99547 155.293L1.14897 152.483C0.952458 152.289 0.635882 152.291 0.441876 152.487C0.247869 152.684 0.249898 153 0.446408 153.194L3.64872 156.356ZM4.49999 155.997L4.49358 154.997L3.4936 155.003L3.50001 156.003L4.49999 155.997ZM4.48076 152.997L4.46794 150.997L3.46796 151.003L3.48078 153.003L4.48076 152.997ZM4.45512 148.997L4.4423 146.997L3.44232 147.003L3.45514 149.003L4.45512 148.997ZM4.42948 144.997L4.41666 142.997L3.41668 143.003L3.4295 145.003L4.42948 144.997ZM4.40384 140.997L4.39102 138.997L3.39104 139.003L3.40386 141.003L4.40384 140.997ZM4.37819 136.997L4.36537 134.997L3.36539 135.003L3.37822 137.003L4.37819 136.997ZM4.35255 132.997L4.33973 130.997L3.33975 131.003L3.35257 133.003L4.35255 132.997ZM4.32691 128.997L4.31409 126.997L3.31411 127.003L3.32693 129.003L4.32691 128.997ZM4.30127 124.997L4.28845 122.997L3.28847 123.003L3.30129 125.003L4.30127 124.997ZM4.27563 120.997L4.26281 118.997L3.26283 119.003L3.27565 121.003L4.27563 120.997ZM4.24999 116.997L4.23717 114.997L3.23719 115.003L3.25001 117.003L4.24999 116.997ZM4.22435 112.997L4.21153 110.997L3.21155 111.003L3.22437 113.003L4.22435 112.997ZM4.19871 108.997L4.18589 106.997L3.18591 107.003L3.19873 109.003L4.19871 108.997ZM4.17307 104.997L4.16025 102.997L3.16027 103.003L3.17309 105.003L4.17307 104.997ZM4.14743 100.997L4.1346 98.9968L3.13463 99.0032L3.14745 101.003L4.14743 100.997ZM4.12178 96.9968L4.10896 94.9968L3.10898 95.0032L3.12181 97.0032L4.12178 96.9968ZM4.09614 92.9968L4.08332 90.9968L3.08334 91.0032L3.09616 93.0032L4.09614 92.9968ZM4.0705 88.9968L4.05768 86.9968L3.0577 87.0032L3.07052 89.0032L4.0705 88.9968ZM4.04486 84.9968L4.03204 82.9968L3.03206 83.0032L3.04488 85.0032L4.04486 84.9968ZM4.01922 80.9968L4.0064 78.9968L3.00642 79.0032L3.01924 81.0032L4.01922 80.9968ZM3.99358 76.9968L3.98076 74.9968L2.98078 75.0032L2.9936 77.0032L3.99358 76.9968ZM3.96794 72.9968L3.95512 70.9968L2.95514 71.0032L2.96796 73.0032L3.96794 72.9968ZM3.9423 68.9968L3.92948 66.9968L2.9295 67.0032L2.94232 69.0032L3.9423 68.9968ZM3.91666 64.9968L3.90384 62.9968L2.90386 63.0032L2.91668 65.0032L3.91666 64.9968ZM3.89102 60.9968L3.8782 58.9968L2.87822 59.0032L2.89104 61.0032L3.89102 60.9968ZM3.86537 56.9968L3.85255 54.9968L2.85257 55.0032L2.8654 57.0032L3.86537 56.9968ZM3.83973 52.9968L3.82691 50.9968L2.82693 51.0032L2.83975 53.0032L3.83973 52.9968ZM3.81409 48.9968L3.80127 46.9968L2.80129 47.0032L2.81411 49.0033L3.81409 48.9968ZM3.78845 44.9968L3.77563 42.9968L2.77565 43.0033L2.78847 45.0033L3.78845 44.9968ZM3.76281 40.9969L3.74999 38.9969L2.75001 39.0033L2.76283 41.0033L3.76281 40.9969ZM3.73717 36.9969L3.72435 34.9969L2.72437 35.0033L2.73719 37.0033L3.73717 36.9969ZM3.71153 32.9969L3.69871 30.9969L2.69873 31.0033L2.71155 33.0033L3.71153 32.9969ZM3.68589 28.9969L3.67307 26.9969L2.67309 27.0033L2.68591 29.0033L3.68589 28.9969ZM3.66025 24.9969L3.64743 22.9969L2.64745 23.0033L2.66027 25.0033L3.66025 24.9969ZM3.63461 20.9969L3.62178 18.9968L2.62181 19.0033L2.63463 21.0033L3.63461 20.9969ZM3.60896 16.9968L3.59614 14.9968L2.59616 15.0032L2.60898 17.0032L3.60896 16.9968ZM3.58332 12.9968L3.5705 10.9968L2.57052 11.0032L2.58334 13.0032L3.58332 12.9968ZM3.55768 8.99682L3.54486 6.99681L2.54488 7.00322L2.5577 9.00323L3.55768 8.99682ZM3.53204 4.99681L3.51922 2.9968L2.51924 3.00321L2.53206 5.00322L3.53204 4.99681ZM3.5064 0.9968L3.49999 -0.00320714L2.50001 0.00320298L2.50642 1.00321L3.5064 0.9968Z" fill="white"/>
</svg>
